<svg version="1.1" viewBox="0.0 0.0 3840.0 1920.0" fill="none" stroke="none" stroke-linecap="square" stroke-miterlimit="10" xmlns:xlink="http://www.w3.org/1999/xlink" xmlns="http://www.w3.org/2000/svg"><clipPath id="p.0"><path d="m0 0l3840.0 0l0 1920.0l-3840.0 0l0 -1920.0z" clip-rule="nonzero"/></clipPath><g clip-path="url(#p.0)"><path fill="#000000" fill-opacity="0.0" d="m0 0l3840.0 0l0 1920.0l-3840.0 0z" fill-rule="evenodd"/><path fill="#ff4e4e" d="m-19.370079 -9.6850395l3878.7402 0l0 1939.3701l-3878.7402 0z" fill-rule="evenodd"/><path fill="#000000" fill-opacity="0.0" d="m1780.6771 828.8041l0 0c0 -25.649109 20.792725 -46.441895 46.441895 -46.441895l185.76196 0l0 0c12.317139 0 24.12976 4.8930054 32.839355 13.602539c8.709595 8.709534 13.602417 20.522217 13.602417 32.839355l0 262.39185c0 25.64917 -20.792603 46.441895 -46.441772 46.441895l-185.76196 0c-25.64917 0 -46.441895 -20.792725 -46.441895 -46.441895z" fill-rule="evenodd"/><path stroke="#ffffff" stroke-width="12.0" stroke-linejoin="round" stroke-linecap="butt" d="m1780.6771 828.8041l0 0c0 -25.649109 20.792725 -46.441895 46.441895 -46.441895l185.76196 0l0 0c12.317139 0 24.12976 4.8930054 32.839355 13.602539c8.709595 8.709534 13.602417 20.522217 13.602417 32.839355l0 262.39185c0 25.64917 -20.792603 46.441895 -46.441772 46.441895l-185.76196 0c-25.64917 0 -46.441895 -20.792725 -46.441895 -46.441895z" fill-rule="evenodd"/><path fill="#000000" fill-opacity="0.0" d="m1800.5564 782.3622l258.77173 0l0 94.42523l-258.77173 0z" fill-rule="evenodd"/><path fill="#ffffff" d="m1822.5876 802.84973q5.078125 0 7.984375 2.75q2.921875 2.75 2.921875 6.046875q0 2.375 -1.203125 4.1875q-1.1875 1.8125 -3.546875 2.65625l0 0.078125q3.03125 0.734375 4.5625 2.859375q1.53125 2.109375 1.53125 5.125q0 4.6875 -3.515625 7.484375q-3.515625 2.78125 -8.71875 2.78125q-5.375 0 -8.890625 -2.734375q-3.5 -2.734375 -3.5 -7.484375q0 -3.109375 1.609375 -5.203125q1.625 -2.109375 4.546875 -2.828125l0 -0.078125q-2.328125 -0.6875 -3.578125 -2.46875q-1.234375 -1.78125 -1.234375 -4.265625q0 -3.984375 3.234375 -6.4375q3.234375 -2.46875 7.796875 -2.46875zm-5.015625 9.53125q0 1.859375 1.390625 3.078125q1.390625 1.203125 3.609375 1.203125q2.203125 0 3.546875 -1.15625q1.34375 -1.171875 1.34375 -3.125q0 -2.046875 -1.25 -3.28125q-1.25 -1.25 -3.671875 -1.25q-2.203125 0 -3.59375 1.28125q-1.375 1.28125 -1.375 3.25zm-0.75 13.890625q0 2.375 1.671875 3.96875q1.671875 1.59375 4.109375 1.59375q2.421875 0 4.015625 -1.5625q1.59375 -1.5625 1.59375 -3.953125q0 -2.25 -1.625 -3.734375q-1.609375 -1.5 -4.015625 -1.5q-2.40625 0 -4.078125 1.375q-1.671875 1.375 -1.671875 3.8125z" fill-rule="nonzero"/><path fill="#ffffff" d="m1939.2317 817.131q2.734375 0 4.5625 1.640625q1.828125 1.625 1.828125 4.1875q0 1.796875 -0.859375 3.234375q-0.84375 1.4375 -3.59375 3.1875q-1.921875 1.203125 -2.828125 2.0q-0.90625 0.796875 -1.421875 1.53125l8.828125 0l0 3.25l-13.703125 0q0 -1.84375 0.65625 -3.265625q0.65625 -1.4375 1.875 -2.5625q1.234375 -1.125 4.703125 -3.421875q1.328125 -0.875 1.953125 -1.75q0.625 -0.890625 0.625 -1.90625q0 -1.25 -0.765625 -2.0625q-0.765625 -0.8125 -2.03125 -0.8125q-1.40625 0 -2.171875 1.15625q-0.765625 1.140625 -0.796875 3.125l-3.625 0l0 -0.34375q0 -3.234375 1.84375 -5.203125q1.84375 -1.984375 4.921875 -1.984375zm14.168579 4.890625q2.8125 0 4.34375 1.109375q1.53125 1.109375 1.734375 3.265625l-3.609375 0q-0.078125 -0.96875 -0.734375 -1.40625q-0.640625 -0.453125 -1.859375 -0.453125q-1.078125 0 -1.59375 0.328125q-0.5 0.328125 -0.5 0.953125q0 0.640625 0.65625 1.046875q0.671875 0.40625 2.65625 0.78125q3.171875 0.609375 4.25 1.578125q1.09375 0.96875 1.09375 2.53125q0 2.34375 -1.71875 3.5625q-1.703125 1.21875 -4.5625 1.21875q-2.859375 0 -4.609375 -1.21875q-1.75 -1.21875 -1.875 -3.640625l3.609375 0q0 1.09375 0.828125 1.71875q0.828125 0.609375 2.078125 0.609375q1.09375 0 1.78125 -0.46875q0.703125 -0.484375 0.703125 -1.296875q0 -0.71875 -0.90625 -1.171875q-0.890625 -0.453125 -3.28125 -0.953125q-2.375 -0.46875 -3.4375 -1.328125q-1.046875 -0.875 -1.046875 -2.359375q0 -2.1875 1.546875 -3.296875q1.546875 -1.109375 4.453125 -1.109375z" fill-rule="nonzero"/><path fill="#ffffff" d="m1985.0352 817.131q2.734375 0 4.5625 1.640625q1.828125 1.625 1.828125 4.1875q0 1.796875 -0.859375 3.234375q-0.84375 1.4375 -3.59375 3.1875q-1.921875 1.203125 -2.828125 2.0q-0.90625 0.796875 -1.421875 1.53125l8.828125 0l0 3.25l-13.703125 0q0 -1.84375 0.65625 -3.265625q0.65625 -1.4375 1.875 -2.5625q1.234375 -1.125 4.703125 -3.421875q1.328125 -0.875 1.953125 -1.75q0.625 -0.890625 0.625 -1.90625q0 -1.25 -0.765625 -2.0625q-0.765625 -0.8125 -2.03125 -0.8125q-1.40625 0 -2.171875 1.15625q-0.765625 1.140625 -0.796875 3.125l-3.625 0l0 -0.34375q0 -3.234375 1.84375 -5.203125q1.84375 -1.984375 4.921875 -1.984375zm16.278076 4.890625q2.921875 0 4.59375 2.046875q1.671875 2.046875 1.671875 5.359375q0 3.046875 -1.640625 5.078125q-1.640625 2.03125 -4.421875 2.03125q-1.265625 0 -2.359375 -0.53125q-1.078125 -0.546875 -1.765625 -1.546875l-0.0625 0l0 6.5625l-3.78125 0l0 -18.640625l3.59375 0l0 1.75l0.0625 0q0.671875 -1.078125 1.71875 -1.59375q1.046875 -0.515625 2.390625 -0.515625zm-4.109375 7.296875q0 1.96875 0.84375 3.171875q0.84375 1.203125 2.453125 1.203125q1.578125 0 2.421875 -1.140625q0.859375 -1.15625 0.859375 -3.234375q0 -1.984375 -0.84375 -3.21875q-0.84375 -1.234375 -2.484375 -1.234375q-1.5625 0 -2.40625 1.171875q-0.84375 1.171875 -0.84375 3.28125z" fill-rule="nonzero"/><path fill="#000000" fill-opacity="0.0" d="m1779.7795 848.1522l280.44092 0l0 289.48035l-280.44092 0z" fill-rule="evenodd"/><path fill="#ffffff" d="m1920.0353 889.5197q22.5 0 36.046875 15.09375q13.5625 15.078125 13.5625 38.1875q0 22.5625 -13.625 37.515625q-13.625 14.9375 -35.984375 14.9375q-14.5625 0 -25.921875 -6.6875q-11.34375 -6.703125 -17.53125 -18.8125q-6.171875 -12.109375 -6.171875 -26.953125q0 -23.328125 13.625 -38.296875q13.640625 -14.984375 36.0 -14.984375zm-27.46875 53.28125q0 14.90625 7.140625 24.328125q7.140625 9.421875 20.328125 9.421875q13.046875 0 20.21875 -9.28125q7.171875 -9.28125 7.171875 -24.46875q0 -15.9375 -7.28125 -25.28125q-7.28125 -9.359375 -20.25 -9.359375q-12.90625 0 -20.125 9.453125q-7.203125 9.453125 -7.203125 25.1875z" fill-rule="nonzero"/><path fill="#ffffff" d="m1859.5604 1028.3328q6.796875 0 10.890625 4.5625q4.09375 4.546875 4.09375 11.53125q0 6.796875 -4.125 11.3125q-4.109375 4.515625 -10.859375 4.515625q-4.390625 0 -7.8125 -2.015625q-3.421875 -2.03125 -5.296875 -5.6875q-1.859375 -3.65625 -1.859375 -8.125q0 -7.046875 4.109375 -11.5625q4.125 -4.53125 10.859375 -4.53125zm-8.28125 16.09375q0 4.484375 2.15625 7.328125q2.15625 2.84375 6.125 2.84375q3.9375 0 6.109375 -2.796875q2.171875 -2.796875 2.171875 -7.375q0 -4.8125 -2.203125 -7.640625q-2.203125 -2.828125 -6.109375 -2.828125q-3.90625 0 -6.078125 2.859375q-2.171875 2.859375 -2.171875 7.609375zm32.47632 -6.96875l3.859375 5.78125l3.84375 -5.78125l6.703125 0l-7.25 10.34375l8.140625 11.71875l-6.90625 0l-4.609375 -6.953125l-4.59375 6.953125l-6.796875 0l7.9375 -11.59375l-7.25 -10.46875l6.921875 0zm21.536133 0l4.984375 15.109375l0.09375 0l4.8125 -15.109375l6.265625 0l-9.375 25.25q-0.828125 2.203125 -2.5625 3.390625q-1.71875 1.1875 -4.46875 1.1875q-1.3125 0 -2.21875 -0.0625q-0.90625 -0.0625 -1.875 -0.15625l0 -4.984375q1.109375 0.125 1.8125 0.15625q0.71875 0.046875 1.359375 0.046875q1.296875 0 2.0 -0.796875q0.703125 -0.78125 0.703125 -1.96875q0 -0.3125 -0.046875 -0.609375q-0.03125 -0.3125 -0.21875 -0.765625l-7.765625 -20.6875l6.5 0zm26.98413 -0.578125q2.421875 0 4.0 0.90625q1.578125 0.890625 2.578125 2.609375l0.09375 0l0 -2.9375l5.75 0l0 20.828125q0 4.4375 -2.828125 7.015625q-2.828125 2.578125 -8.578125 2.578125q-3.890625 0 -6.6875 -1.875q-2.78125 -1.859375 -3.046875 -5.21875l6.0 0q0.40625 1.609375 1.5625 2.328125q1.171875 0.71875 2.953125 0.71875q2.328125 0 3.59375 -1.40625q1.28125 -1.40625 1.28125 -3.90625l0 -3.0625l-0.09375 0q-0.890625 1.625 -2.640625 2.53125q-1.734375 0.890625 -3.984375 0.890625q-4.453125 0 -6.9375 -2.953125q-2.46875 -2.96875 -2.46875 -8.125q0 -4.671875 2.59375 -7.796875q2.59375 -3.125 6.859375 -3.125zm-3.390625 10.828125q0 3.109375 1.28125 4.859375q1.28125 1.75 3.609375 1.75q2.390625 0 3.78125 -1.75q1.390625 -1.75 1.390625 -4.375q0 -3.234375 -1.3125 -4.984375q-1.3125 -1.765625 -3.875 -1.765625q-2.25 0 -3.5625 1.71875q-1.3125 1.703125 -1.3125 4.546875zm30.868652 -10.828125q4.890625 0 7.8125 3.375q2.9375 3.359375 2.9375 8.578125l-0.046875 1.125l-15.90625 0q0.125 2.859375 1.484375 4.234375q1.359375 1.375 3.90625 1.375q1.640625 0 3.03125 -0.84375q1.40625 -0.84375 1.78125 -2.03125l5.328125 0q-1.234375 3.75 -3.796875 5.59375q-2.5625 1.84375 -6.53125 1.84375q-5.109375 0 -8.1875 -3.234375q-3.078125 -3.234375 -3.078125 -8.375q0 -4.9375 3.15625 -8.28125q3.15625 -3.359375 8.109375 -3.359375zm-5.203125 9.25l9.84375 0q-0.4375 -2.4375 -1.578125 -3.5625q-1.125 -1.125 -3.28125 -1.125q-2.203125 0 -3.5 1.25q-1.28125 1.25 -1.484375 3.4375zm32.15027 -9.25q4.234375 0 6.140625 2.140625q1.90625 2.125 1.90625 6.71875l0 13.78125l-6.0625 0l0 -12.640625q0 -2.578125 -0.890625 -3.90625q-0.890625 -1.328125 -2.984375 -1.328125q-2.515625 0 -3.609375 1.5q-1.09375 1.5 -1.09375 4.609375l0 11.765625l-6.046875 0l0 -22.0625l5.75 0l0 3.09375l0.125 0q1.109375 -1.78125 2.875 -2.71875q1.765625 -0.953125 3.890625 -0.953125z" fill-rule="nonzero"/><path fill="#ffffff" d="m1880.5941 1076.7266l0 24.265625l-4.921875 0l0 -15.734375l-6.09375 0l0 -3.703125l0.3125 0q2.984375 0 4.703125 -1.21875q1.71875 -1.234375 2.0625 -3.609375l3.9375 0zm23.008423 0l0 4.0625l-10.015625 0l-0.96875 5.515625l0.0625 0.0625q0.921875 -0.90625 2.03125 -1.390625q1.125 -0.484375 2.71875 -0.484375q3.375 0 5.421875 2.328125q2.0625 2.3125 2.0625 5.9375q0 3.59375 -2.59375 6.15625q-2.59375 2.5625 -6.296875 2.5625q-3.921875 0 -6.46875 -2.046875q-2.546875 -2.046875 -2.65625 -5.640625l4.921875 0q0.1875 1.65625 1.28125 2.640625q1.09375 0.984375 2.703125 0.984375q1.8125 0 3.0 -1.359375q1.1875 -1.375 1.1875 -3.296875q0 -2.015625 -1.15625 -3.28125q-1.15625 -1.28125 -3.046875 -1.28125q-1.3125 0 -2.15625 0.484375q-0.84375 0.484375 -1.53125 1.46875l-4.4375 0l2.390625 -13.421875l13.546875 0zm9.46167 18.9375l0 5.328125l-5.4375 0l0 -5.328125l5.4375 0zm11.347412 -19.40625q4.578125 0 6.9375 3.28125q2.375 3.265625 2.375 9.234375q0 5.484375 -2.546875 9.09375q-2.53125 3.609375 -7.0 3.609375q-3.15625 0 -5.296875 -1.765625q-2.125 -1.78125 -2.546875 -4.96875l4.671875 0q0.28125 1.375 1.171875 2.203125q0.90625 0.828125 2.09375 0.828125q1.953125 0 3.15625 -1.859375q1.203125 -1.875 1.46875 -5.53125l-0.0625 -0.0625q-0.984375 1.375 -2.3125 2.046875q-1.328125 0.65625 -3.15625 0.65625q-2.0 0 -3.859375 -1.09375q-1.859375 -1.09375 -2.734375 -2.90625q-0.859375 -1.828125 -0.859375 -3.921875q0 -3.765625 2.375 -6.296875q2.390625 -2.546875 6.125 -2.546875zm-3.578125 8.46875q0 1.984375 1.0 3.296875q1.0 1.296875 2.703125 1.296875q1.765625 0 2.828125 -1.234375q1.078125 -1.234375 1.078125 -3.265625q0 -1.921875 -1.109375 -3.21875q-1.09375 -1.3125 -2.8125 -1.3125q-1.578125 0 -2.640625 1.296875q-1.046875 1.28125 -1.046875 3.140625zm22.852295 -8.46875q4.578125 0 6.9375 3.28125q2.375 3.265625 2.375 9.234375q0 5.484375 -2.546875 9.09375q-2.53125 3.609375 -7.0 3.609375q-3.15625 0 -5.296875 -1.765625q-2.125 -1.78125 -2.546875 -4.96875l4.671875 0q0.28125 1.375 1.171875 2.203125q0.90625 0.828125 2.09375 0.828125q1.953125 0 3.15625 -1.859375q1.203125 -1.875 1.46875 -5.53125l-0.0625 -0.0625q-0.984375 1.375 -2.3125 2.046875q-1.328125 0.65625 -3.15625 0.65625q-2.0 0 -3.859375 -1.09375q-1.859375 -1.09375 -2.734375 -2.90625q-0.859375 -1.828125 -0.859375 -3.921875q0 -3.765625 2.375 -6.296875q2.390625 -2.546875 6.125 -2.546875zm-3.578125 8.46875q0 1.984375 1.0 3.296875q1.0 1.296875 2.703125 1.296875q1.765625 0 2.828125 -1.234375q1.078125 -1.234375 1.078125 -3.265625q0 -1.921875 -1.109375 -3.21875q-1.09375 -1.3125 -2.8125 -1.3125q-1.578125 0 -2.640625 1.296875q-1.046875 1.28125 -1.046875 3.140625zm22.852295 -8.46875q4.578125 0 6.9375 3.28125q2.375 3.265625 2.375 9.234375q0 5.484375 -2.546875 9.09375q-2.53125 3.609375 -7.0 3.609375q-3.15625 0 -5.296875 -1.765625q-2.125 -1.78125 -2.546875 -4.96875l4.671875 0q0.28125 1.375 1.171875 2.203125q0.90625 0.828125 2.09375 0.828125q1.953125 0 3.15625 -1.859375q1.203125 -1.875 1.46875 -5.53125l-0.0625 -0.0625q-0.984375 1.375 -2.3125 2.046875q-1.328125 0.65625 -3.15625 0.65625q-2.0 0 -3.859375 -1.09375q-1.859375 -1.09375 -2.734375 -2.90625q-0.859375 -1.828125 -0.859375 -3.921875q0 -3.765625 2.375 -6.296875q2.390625 -2.546875 6.125 -2.546875zm-3.578125 8.46875q0 1.984375 1.0 3.296875q1.0 1.296875 2.703125 1.296875q1.765625 0 2.828125 -1.234375q1.078125 -1.234375 1.078125 -3.265625q0 -1.921875 -1.109375 -3.21875q-1.09375 -1.3125 -2.8125 -1.3125q-1.578125 0 -2.640625 1.296875q-1.046875 1.28125 -1.046875 3.140625z" fill-rule="nonzero"/><path fill="#000000" fill-opacity="0.0" d="m1952.8923 801.16534l106.42529 0l0 56.81891l-106.42529 0z" fill-rule="evenodd"/><path fill="#ffffff" d="m1966.5486 814.10345q1.640625 0 2.734375 0.984375q1.109375 0.96875 1.109375 2.515625q0 1.078125 -0.515625 1.9375q-0.515625 0.859375 -2.171875 1.90625q-1.140625 0.734375 -1.6875 1.21875q-0.546875 0.46875 -0.859375 0.90625l5.296875 0l0 1.953125l-8.21875 0q0 -1.109375 0.390625 -1.96875q0.390625 -0.859375 1.125 -1.53125q0.75 -0.671875 2.828125 -2.0625q0.796875 -0.515625 1.171875 -1.046875q0.375 -0.53125 0.375 -1.140625q0 -0.75 -0.46875 -1.234375q-0.453125 -0.484375 -1.21875 -0.484375q-0.84375 0 -1.296875 0.6875q-0.453125 0.6875 -0.484375 1.875l-2.171875 0l0 -0.203125q0 -1.953125 1.109375 -3.125q1.109375 -1.1875 2.953125 -1.1875zm46.960938 0.21875l0 6.734375l1.484375 0l0 1.875l-1.484375 0l0 2.59375l-2.15625 0l0 -2.59375l-4.734375 0l0 -2.078125l4.859375 -6.53125l2.03125 0zm-2.203125 2.84375l-2.90625 3.890625l2.953125 0l0 -3.890625l-0.046875 0z" fill-rule="nonzero"/></g></svg>